<svg width="61" height="61" viewBox="0 0 61 61" fill="none" xmlns="http://www.w3.org/2000/svg">
<path d="M57.34 31.1355C57.34 29.153 57.1621 27.2467 56.8317 25.4167H30.5V36.2315H45.5467C44.8985 39.7263 42.9288 42.6874 39.9677 44.6699V51.6849H49.0033C54.29 46.8176 57.34 39.6501 57.34 31.1355Z" fill="#4285F4"/>
<path d="M30.5 58.4583C38.0487 58.4583 44.3775 55.9547 49.0033 51.6847L39.9677 44.6697C37.4642 46.3472 34.2617 47.3385 30.5 47.3385C23.2181 47.3385 17.0546 42.4203 14.856 35.812H5.51541V43.0558C10.1158 52.1931 19.5708 58.4583 30.5 58.4583Z" fill="#34A853"/>
<path d="M14.856 35.812C14.2969 34.1345 13.9792 32.3426 13.9792 30.4999C13.9792 28.6572 14.2969 26.8653 14.856 25.1878V17.9441H5.51542C3.55834 21.8401 2.53995 26.14 2.54167 30.4999C2.54167 35.0114 3.62188 39.2814 5.51542 43.0558L14.856 35.812Z" fill="#FBBC05"/>
<path d="M30.5 13.6615C34.6048 13.6615 38.2902 15.0722 41.1877 17.8426L49.2067 9.82362C44.3648 5.31216 38.036 2.54175 30.5 2.54175C19.5708 2.54175 10.1158 8.80696 5.51541 17.9442L14.856 25.188C17.0546 18.5797 23.2181 13.6615 30.5 13.6615Z" fill="#EA4335"/>
</svg>
