<svg width="66" height="66" viewBox="0 0 66 66" fill="none" xmlns="http://www.w3.org/2000/svg">
<path d="M52.2115 19.0024C52.3586 11.3506 46.0446 5.47656 37.3629 5.47656H19.4081C18.9896 5.4767 18.5849 5.62621 18.2667 5.89819C17.9486 6.17017 17.738 6.54676 17.6729 6.96019L10.4775 51.9172C10.4453 52.1209 10.4577 52.3292 10.5137 52.5276C10.5697 52.7261 10.6681 52.9101 10.802 53.0669C10.936 53.2237 11.1023 53.3497 11.2896 53.436C11.4769 53.5224 11.6806 53.5671 11.8869 53.5672H22.5253L20.8615 63.9787C20.8293 64.1825 20.8417 64.3909 20.8978 64.5895C20.9539 64.7881 21.0524 64.9721 21.1865 65.1289C21.3206 65.2858 21.4871 65.4117 21.6745 65.498C21.862 65.5842 22.0659 65.6288 22.2723 65.6287H30.9375C31.3569 65.6287 31.7295 65.4774 32.0471 65.2066C32.3647 64.9343 32.417 64.5589 32.4816 64.1451L35.0254 49.1782C35.09 48.7657 35.3004 48.2294 35.6194 47.9572C35.937 47.6849 36.2148 47.5364 36.6327 47.5351H41.9375C50.4391 47.5351 57.6537 41.4933 58.9724 33.0879C59.9046 27.1204 57.3457 21.6933 52.2115 19.0024Z" fill="#001C64"/>
<path d="M24.827 36.9874L22.1774 53.7899L20.5136 64.3279C20.4814 64.5318 20.4938 64.7401 20.5499 64.9387C20.606 65.1373 20.7045 65.3214 20.8386 65.4782C20.9727 65.635 21.1392 65.7609 21.3266 65.8472C21.5141 65.9335 21.718 65.9781 21.9244 65.9779H31.0956C31.5139 65.9775 31.9183 65.8278 32.2362 65.5559C32.554 65.2839 32.7644 64.9075 32.8295 64.4943L35.2468 49.1768C35.3119 48.7638 35.5224 48.3875 35.8402 48.1158C36.1581 47.8441 36.5625 47.6947 36.9806 47.6946H42.3803C50.8819 47.6946 58.0951 41.4933 59.4137 33.0879C60.3487 27.1218 57.3457 21.6947 52.2115 19.0024C52.1978 19.6377 52.1428 20.2716 52.0451 20.8999C50.7265 29.3039 43.5119 35.5066 35.0103 35.5066H26.5609C26.1429 35.5066 25.7387 35.6558 25.4209 35.9273C25.103 36.1987 24.8925 36.5746 24.827 36.9874Z" fill="#0070E0"/>
<path d="M22.176 53.79H11.506C11.2997 53.7901 11.0958 53.7455 10.9084 53.6593C10.721 53.573 10.5546 53.447 10.4206 53.2902C10.2866 53.1333 10.1882 52.9492 10.1323 52.7506C10.0764 52.5521 10.0642 52.3437 10.0966 52.14L17.2906 6.51472C17.3558 6.10143 17.5665 5.725 17.8846 5.45325C18.2027 5.18149 18.6075 5.03227 19.0259 5.03247H37.3642C46.0446 5.03247 52.3586 11.3506 52.2115 19.0025C50.0514 17.8695 47.5131 17.2218 44.7315 17.2218H29.4429C29.0248 17.2223 28.6205 17.3717 28.3027 17.6434C27.9849 17.9151 27.7744 18.2912 27.709 18.7041L24.8284 36.9875L22.176 53.79Z" fill="#003087"/>
</svg>
